<svg xmlns="http://www.w3.org/2000/svg" viewBox="0 0 496 496"><circle cx="152" cy="248" r="96" fill="#ff5c62"/><g fill="#252525"><path d="M376 304h16v96h-16zM120 64h256v128h16V40c0-22.056-17.944-40-40-40H144c-22.056 0-40 17.944-40 40v40h16V64zm24-48h208c13.232 0 24 10.768 24 24v8H120v-8c0-13.232 10.768-24 24-24z"/><path d="M292.072 307.12l-14.736-6.232c-8.08 19.112-20.16 35.656-35.016 48.848-4.824-5.832-13.736-14.76-27.608-22.52 9.136-19.608 15.792-43.4 16.928-71.216H248v-16h-16.36c-1.128-27.816-7.784-51.608-16.928-71.216 13.872-7.76 22.784-16.68 27.608-22.52a136.008 136.008 0 0 1 35.016 48.848l14.736-6.232C268.232 132.464 213.248 96 152 96 68.184 96 0 164.184 0 248s68.184 152 152 152c61.248 0 116.232-36.464 140.072-92.88zM160 120.928c9.048 8.352 21.488 21.832 32.416 40.392-9.056 3.256-19.792 5.64-32.416 6.376v-46.768zm-16 .056v46.72c-12.616-.72-23.336-3.088-32.376-6.312 10.92-18.528 23.344-32.032 32.376-40.408zm-47.312 33.664c-11.32-6.376-18.512-13.544-22.352-18.136a135.056 135.056 0 0 1 53.28-22.2c-9.504 9.448-20.888 22.896-30.928 40.336zM144 183.688V240H88.368c1.144-25.008 7.288-46.56 15.664-64.376 11.048 4.208 24.296 7.264 39.968 8.064zM144 256v56.312c-15.704.808-28.968 3.872-40.032 8.088-8.344-17.8-14.464-39.352-15.6-64.4H144zm16 119.016v-46.72c12.616.72 23.336 3.088 32.376 6.312-10.92 18.528-23.344 32.032-32.376 40.408zm-16-46.712v46.768c-9.048-8.352-21.488-21.832-32.416-40.392 9.056-3.256 19.792-5.64 32.416-6.376zm-16.384 53.384a135.16 135.16 0 0 1-53.256-22.184c3.84-4.552 11.064-11.688 22.376-18.072 10.024 17.4 21.392 30.824 30.88 40.256zm102.12-22.12a135.646 135.646 0 0 1-53.392 22.16c9.512-9.448 20.92-22.912 30.968-40.376 11.392 6.416 18.608 13.632 22.424 18.216zm-29.768-39.192c-11.048-4.208-24.296-7.264-39.968-8.064V256h55.632c-1.144 25.008-7.296 46.56-15.664 64.376zM215.632 240H160v-56.312c15.704-.808 28.968-3.872 40.032-8.088 8.344 17.8 14.464 39.352 15.6 64.4zm-8.368-85.432c-10.04-17.432-21.424-30.864-30.928-40.304a135.516 135.516 0 0 1 53.368 22.144c-3.816 4.544-11.056 11.736-22.44 18.16zM61.84 146.464c4.856 5.84 13.728 14.648 27.448 22.32-9.136 19.608-15.792 43.4-16.928 71.216H16.408c2.176-37.152 19.264-70.28 45.432-93.536zM16.408 256h55.96c1.128 27.816 7.784 51.608 16.928 71.216-13.72 7.672-22.592 16.48-27.448 22.32C35.672 326.28 18.584 293.152 16.408 256zM104 456c0 22.056 17.944 40 40 40h208c22.056 0 40-17.944 40-40v-40H104v40zm16-24h256v24c0 13.232-10.768 24-24 24H144c-13.232 0-24-10.768-24-24v-24z"/><path d="M200 448h96v16h-96zm64-240v80h232v-80H264zm16 16h40v48h-40v-48zm200 48H336v-48h144v48z"/></g><path d="M352 240h16v16h-16zm32 0h16v16h-16zm32 0h16v16h-16zm32 0h16v16h-16z" fill="#e56565"/></svg>