<svg xmlns="http://www.w3.org/2000/svg" viewBox="0 0 496 496"><circle cx="96" cy="192" r="88" fill="#ff5c62"/><path fill="#e56565" d="M496 280h-56v-16h40V64H256v80h-16V48h256z"/><path d="M336 189.92c-14.496-10.12-24-26.896-24-45.92 0-30.928 25.072-56 56-56s56 25.072 56 56c0 19.024-9.504 35.8-24 45.92V240h-64v-50.08z" fill="#ff5c62"/><g fill="#252525"><path d="M96 64h128V48H96v-8c0-13.232 10.768-24 24-24h168c8.824 0 16 7.176 16 16h16c0-17.648-14.352-32-32-32H120C97.944 0 80 17.944 80 40v40h16V64zm0 320v-24h32v-16H80v40c0 22.056 17.944 40 40 40h24v-16h-24c-13.232 0-24-10.768-24-24zm51.632-177.72A35.34 35.34 0 0 0 160 179.4c0-19.52-15.88-35.4-35.4-35.4h-1.248c-9.456 0-18.344 3.68-25.032 10.36L96 156.688l-2.32-2.328C86.992 147.68 78.104 144 68.648 144H67.4C47.88 144 32 159.88 32 179.4a35.298 35.298 0 0 0 12.368 26.872L96 250.536l51.632-44.256zM48 179.4c0-10.696 8.704-19.4 19.4-19.4h1.248a19.286 19.286 0 0 1 13.72 5.68L96 179.312l13.632-13.632a19.273 19.273 0 0 1 13.72-5.68h1.248c10.696 0 19.4 8.704 19.4 19.4 0 5.672-2.472 11.04-6.776 14.728L96 229.464 54.776 194.12A19.345 19.345 0 0 1 48 179.4z"/><path d="M192 192c0-52.936-43.064-96-96-96S0 139.064 0 192s43.064 96 96 96 96-43.064 96-96zm-176 0c0-44.112 35.888-80 80-80s80 35.888 80 80-35.888 80-80 80-80-35.888-80-80zm392 1.92c15.104-12.12 24-30.48 24-49.92 0-35.288-28.712-64-64-64s-64 28.712-64 64c0 19.44 8.896 37.8 24 49.92V200h-16v16h16v32h80v-32h16v-16h-16v-6.08zm-67.424-10.56C327.696 174.36 320 159.648 320 144c0-26.472 21.528-48 48-48s48 21.528 48 48c0 15.648-7.696 30.36-20.576 39.36L392 185.752V200h-16v-33.472c9.288-3.312 16-12.112 16-22.528 0-13.232-10.768-24-24-24s-24 10.768-24 24c0 10.416 6.712 19.216 16 22.528V200h-16v-14.248l-3.424-2.392zM360 144c0-4.408 3.584-8 8-8s8 3.592 8 8-3.584 8-8 8-8-3.592-8-8zm32 88h-48v-16h48v16z"/><path d="M392 264c-9.608 0-18.128 4.336-24 11.056-5.872-6.72-14.392-11.056-24-11.056s-18.128 4.336-24 11.056c-5.872-6.72-14.392-11.056-24-11.056-5.856 0-11.272 1.696-16 4.448V192c0-17.648-14.352-32-32-32s-32 14.352-32 32v163.272c0 1.216-.48 2.368-1.352 3.216-.864.848-1.632 1.176-3.24 1.296a4.484 4.484 0 0 1-4.264-3.28l-10.952-38.784C192.576 304.928 180.776 296 167.48 296h-1.64c-16.456 0-29.84 13.384-29.84 29.832 0 1.968.192 3.936.576 5.848l10.312 51.568c3.76 18.752 13.968 35.864 28.744 48.184L200 451.752V496h192v-9.376c0-12.272 4.976-24.288 13.656-32.968C417.312 442 424 425.856 424 409.376V296c0-17.648-14.352-32-32-32zm16 145.376c0 12.272-4.976 24.288-13.656 32.968-10.088 10.088-16.456 23.528-17.984 37.656H216v-35.752l-30.12-25.104c-11.984-9.984-20.264-23.848-23.304-39.032l-10.312-51.568a13.916 13.916 0 0 1-.264-2.712C152 318.2 158.2 312 165.832 312h1.64c6.168 0 11.64 4.144 13.32 10.072l10.952 38.784c2.48 8.784 10.264 14.784 19.392 14.936 5.392-.008 10.776-2 14.728-5.888 3.96-3.888 6.136-9.08 6.136-14.632V192c0-8.824 7.176-16 16-16s16 7.176 16 16v136h16v-32c0-8.824 7.176-16 16-16s16 7.176 16 16v32h16v-32c0-8.824 7.176-16 16-16s16 7.176 16 16v32h16v-32c0-8.824 7.176-16 16-16s16 7.176 16 16v113.376zM80 304h16v24H80z"/></g></svg>