<svg xmlns="http://www.w3.org/2000/svg" viewBox="0 0 496 496"><path d="M216 176h-64v152h-24l56 64 56-64h-24zm112 8l-56 64h24v152h64V248h24z" fill="#ff5c62"/><g fill="#252525"><path d="M0 264v192c0 22.056 17.944 40 40 40h40V224H40c-22.056 0-40 17.944-40 40zm64 216H40c-13.232 0-24-10.768-24-24V264c0-13.232 10.768-24 24-24h24v240zm392-256h-40v16h16v240H96v16h360c22.056 0 40-17.944 40-40V264c0-22.056-17.944-40-40-40zm24 232c0 13.232-10.768 24-24 24h-8V240h8c13.232 0 24 10.768 24 24v192z"/><path d="M32 328h16v64H32zm96-136c-26.472 0-48-21.528-48-48s21.528-48 48-48c.16 0 .312.032.464.032-.288 2.624-.464 5.272-.464 7.968a72.026 72.026 0 0 0 24.376 54l10.592-12A56.029 56.029 0 0 1 144 104c0-30.88 25.128-56 56-56s56 25.12 56 56h16c0-28.368-16.536-52.888-40.44-64.616C246.504 24.464 266.656 16 288 16c39.544 0 72.336 28.144 78.808 66.416C339.856 89.952 320 114.672 320 144h16c0-26.472 21.528-48 48-48s48 21.528 48 48-21.528 48-48 48h-16v16h16c35.288 0 64-28.712 64-64s-28.712-64-64-64c-.464 0-.92.064-1.384.072C375 33.952 335.568 0 288 0c-28.16 0-54.576 12.272-72.872 33.632C210.24 32.584 205.192 32 200 32c-31.392 0-58.08 20.224-67.904 48.296-1.368-.088-2.72-.296-4.096-.296-35.288 0-64 28.712-64 64s28.712 64 64 64v-16z"/><path d="M160 176h-16v144h-33.632L184 404.152 257.632 320H224V176h-16v160h14.368L184 379.848 145.632 336H160zm192 224h16V256h33.632L328 171.848 254.368 256H288v144h16V240h-14.368L328 196.152 366.368 240H352z"/></g><path d="M384 336h16v16h-16zm0-32h16v16h-16zm0-32h16v16h-16zm-272-48h16v16h-16zm0 32h16v16h-16zm0 32h16v16h-16z" fill="#e56565"/></svg>