<svg xmlns="http://www.w3.org/2000/svg" viewBox="0 0 495.848 495.848"><path d="M393.94 200v-48h-18.888a102.279 102.279 0 0 0-12.632-30.528l13.344-13.352-33.936-33.936-13.352 13.344a102.365 102.365 0 0 0-30.528-12.632V56h-48v18.888A102.279 102.279 0 0 0 219.42 87.52l-13.352-13.344-33.936 33.936 13.344 13.352a102.365 102.365 0 0 0-12.632 30.528H153.94v48h18.888a102.279 102.279 0 0 0 12.632 30.528l-13.344 13.352 33.936 33.936 13.376-13.376a119.25 119.25 0 0 0 5.544 3.144l7.528-14.112 9.44.008v-22.248c-19.112-11.072-32-31.696-32-55.368 0-35.344 28.656-64 64-64s64 28.656 64 64c0 23.672-12.888 44.296-32 55.368v22.192l9.576-.008 7.608 14.08a129.973 129.973 0 0 0 5.32-3.04l13.376 13.376 33.936-33.936-13.344-13.352a102.365 102.365 0 0 0 12.632-30.528h18.896V200z" fill="#ff5c62"/><g fill="#252525"><path d="M457.788 183.92c0-100.128-81.432-182.624-181.52-183.904C275.484.008 274.716 0 273.94 0 187.516 0 111.98 61.56 93.796 147.184c-4.496 21.128-5.056 42.92-1.68 64.832l-54.08 96.728 59.904 17.272v97.832h80v72h16v-88h-80v-93.864L61.836 298.96l46.984-84.024-.472-2.784c-3.536-20.848-3.168-41.592 1.104-61.64C126.212 71.56 196.22 14.928 276.068 16.016c91.384 1.168 165.728 76.496 165.728 167.912l.024 29.192c.04 64.096-31.512 124.096-84.416 160.504l-3.464 2.392v119.832h16V384.376c55.152-39.608 87.912-103.304 87.872-171.264l-.024-29.192z"/><path d="M345.94 175.848c0-39.704-32.296-72-72-72s-72 32.296-72 72c0 23.992 12.152 46.496 32 59.8v12.608c-9.12 1.856-16 9.936-16 19.592 0 7.12 3.76 13.328 9.368 16.88-.848 2.224-1.368 4.608-1.368 7.12 0 11.032 8.968 20 20 20h56c11.032 0 20-8.968 20-20 0-2.52-.52-4.904-1.368-7.12 5.608-3.544 9.368-9.76 9.368-16.88 0-9.664-6.88-17.736-16-19.592v-12.608c19.848-13.304 32-35.808 32-59.8zm-128 0c0-30.872 25.128-56 56-56s56 25.128 56 56c0 19.872-10.736 38.44-28.008 48.448l-3.992 2.312v21.24h-16v-49.472c9.288-3.312 16-12.112 16-22.528 0-13.232-10.768-24-24-24s-24 10.768-24 24c0 10.416 6.712 19.216 16 22.528v49.472h-16v-21.24l-3.992-2.312c-17.272-10.008-28.008-28.568-28.008-48.448zm48 0c0-4.416 3.584-8 8-8s8 3.584 8 8-3.584 8-8 8-8-3.584-8-8zm-28 88h72c2.2 0 4 1.8 4 4s-1.8 4-4 4h-72c-2.2 0-4-1.8-4-4s1.8-4 4-4zm64 32h-56c-2.2 0-4-1.8-4-4s1.8-4 4-4h56c2.2 0 4 1.8 4 4s-1.8 4-4 4zm-36.128 32h16v16h-16zm0 32h16v16h-16zm0 32h16v16h-16zm0 32h16v16h-16z"/></g></svg>