<svg xmlns="http://www.w3.org/2000/svg" viewBox="0 0 496 496"><path d="M432 232H304V94.48c0-24.864 8.72-48.944 24.632-68.04A51.233 51.233 0 0 1 368 8a51.233 51.233 0 0 1 39.368 18.44A106.298 106.298 0 0 1 432 94.48V232zm-272 64h176v16H160zm0 32h64v16h-64zm112 0h64v16h-64zm-112 32h16v16h-16zm32 0h144v16H192z" fill="#b3c1c9"/><g fill="#252525"><path d="M392 400H48c-12.304 0-23.496 4.688-32 12.32V48c0-17.648 14.352-32 32-32h24v368h16V16h224V0H48C21.528 0 0 21.528 0 48v400c0 26.472 21.528 48 48 48h360v-16c-17.648 0-32-14.352-32-32s14.352-32 32-32V288h-16v112zm-19.744 80H48c-17.648 0-32-14.352-32-32s14.352-32 32-32h324.256C364.64 424.496 360 435.72 360 448s4.64 23.504 12.256 32z"/><path d="M484.32 196.68L440 171.36V94.48c0-26.68-9.408-52.664-26.488-73.168C402.224 7.768 385.632 0 368 0s-34.216 7.768-45.504 21.312C305.408 41.816 296 67.8 296 94.488v76.872l-44.32 25.32A23.252 23.252 0 0 0 240 216.816C240 229.6 250.4 240 263.184 240H280v-16h-16.816c-3.96 0-7.184-3.224-7.184-7.184a7.192 7.192 0 0 1 3.624-6.24L296 189.784V240h24v32h96v-32h24v-50.216l36.376 20.784a7.195 7.195 0 0 1 3.624 6.248c0 3.96-3.224 7.184-7.184 7.184H456v16h16.816C485.6 240 496 229.6 496 216.816c0-8.304-4.48-16.016-11.68-20.136zM400 256h-64v-16h64v16zm24-32H312V94.488c0-22.944 8.088-45.296 22.784-62.92A43.113 43.113 0 0 1 368 16a43.136 43.136 0 0 1 33.224 15.56C415.912 49.184 424 71.528 424 94.48V224z"/><path d="M368 56c-17.648 0-32 14.352-32 32s14.352 32 32 32 32-14.352 32-32-14.352-32-32-32zm0 48c-8.824 0-16-7.176-16-16s7.176-16 16-16 16 7.176 16 16-7.176 16-16 16zm0 40c-17.648 0-32 14.352-32 32s14.352 32 32 32 32-14.352 32-32-14.352-32-32-32zm0 48c-8.824 0-16-7.176-16-16s7.176-16 16-16 16 7.176 16 16-7.176 16-16 16zm-88-80V96H120v176h184v-16H136V112zM32 440h16v16H32zm32 0h280v16H64z"/></g></svg>