<svg xmlns="http://www.w3.org/2000/svg" viewBox="0 0 496 496"><path d="M341.44 152h-32v112h32c22.056 0 40-17.944 40-40v-32c0-22.056-17.944-40-40-40zm-272 0c-22.056 0-40 17.944-40 40v32c0 22.056 17.944 40 40 40h32V152h-32z" fill="#b3c1c9"/><g fill="#252525"><path d="M61.808 152.768C65.608 76.736 128.48 16 205.44 16s139.832 60.736 143.632 136.768c6.088 1.184 11.6 3.824 16.368 7.432v-.2c0-88.224-71.776-160-160-160s-160 71.776-160 160h.248c4.712-3.504 10.144-6.064 16.12-7.232z"/><path d="M349.048 363.904c.208-1.28.392-2.568.392-3.904v-96.808a39.963 39.963 0 0 1-8 .808h-8v89.704c-9.496-5-19.832-8.536-30.696-10.208l-41.304-6.36v-8.288c33.416-19.4 56-55.496 56-96.848v-80h15.592C328.872 85.152 273.32 32 205.44 32S82.008 85.152 77.848 152H93.44v80c0 41.344 22.584 77.448 56 96.848v8.288l-41.304 6.352c-36.96 5.688-68.048 32.424-79.2 68.112L2.56 496h405.76l-26.376-84.392c-5.96-19.096-17.672-35.584-32.896-47.704zM205.44 48c59.056 0 107.464 45.976 111.592 104h-7.592c-16.688 0-31.688-9.272-39.16-24.192l-5.104-10.224-6.992 3.104C211.44 141.464 161.8 152 110.648 152H93.84c4.136-58.024 52.544-104 111.6-104zm-96 184v-64h1.208c50.888 0 100.344-9.992 147.128-29.696 9.344 16.096 25.4 26.744 43.664 29.168V232c0 52.936-43.064 96-96 96s-96-43.064-96-96zm96 112c14.104 0 27.56-2.728 40-7.512v3.232l-40 26.664-40-26.664v-3.232c12.44 4.784 25.896 7.512 40 7.512zM44.208 416.376c9.344-29.904 35.392-52.312 66.36-57.072l45.024-6.928 49.848 33.24 49.856-33.232 45.024 6.928c9.064 1.392 17.608 4.456 25.536 8.616-.152 0-.272.072-.416.072h-64c-13.232 0-24 10.768-24 24v8h-80c-13.232 0-24 10.768-24 24v16h-32v-16h-16v32h48c14.864 0 27.288 10.24 30.864 24H24.32l19.888-63.624zM261.44 442.8c-16.176 5.744-28.352 19.896-31.28 37.2h-49.44c-2.92-17.304-15.104-31.456-31.28-37.2V424c0-4.408 3.592-8 8-8h96c4.408 0 8 3.592 8 8v18.8zM246.576 480c3.576-13.76 16-24 30.864-24h48v-32h-16v16h-32v-16c0-13.232-10.768-24-24-24v-8c0-4.408 3.592-8 8-8h64c6.008 0 11.448-2.296 15.664-5.96 11.784 9.984 20.84 23.184 25.576 38.344L386.56 480H246.576z"/><path d="M173.44 196c0-11.024-8.976-20-20-20s-20 8.976-20 20 8.976 20 20 20 20-8.976 20-20zm-20 4c-2.208 0-4-1.792-4-4s1.792-4 4-4 4 1.792 4 4-1.792 4-4 4zm104 16c11.024 0 20-8.976 20-20s-8.976-20-20-20-20 8.976-20 20 8.976 20 20 20zm0-24c2.208 0 4 1.792 4 4s-1.792 4-4 4-4-1.792-4-4 1.792-4 4-4zm-4 64h-16c0 17.648-14.352 32-32 32s-32-14.352-32-32h-16c0 26.472 21.528 48 48 48s48-21.528 48-48zm240-200V40h-64v91.24c-4.696-2.008-10.096-3.24-16-3.24-17.944 0-32 10.544-32 24s14.056 24 32 24 32-10.544 32-24V96h48V80h-48V56h48zm-80 104c-9.768 0-16-4.736-16-8s6.232-8 16-8 16 4.736 16 8-6.232 8-16 8z"/></g></svg>