<svg xmlns="http://www.w3.org/2000/svg" viewBox="0 0 496 496"><path d="M472 280H296c-8.84 0-16-7.16-16-16V104c0-8.84 7.16-16 16-16h176c8.84 0 16 7.16 16 16v160c0 8.84-7.16 16-16 16z" fill="#b3c1c9"/><g fill="#b3c1c9"><path d="M56 312h16v48H56z"/><path d="M40 328h48v16H40zm160-16h16v16h-16zm32 0h16v16h-16zm-32 32h16v16h-16zm32 0h16v16h-16z"/></g><g fill="#252525"><path d="M120 64h272V40c0-22.056-17.944-40-40-40H144c-22.056 0-40 17.944-40 40v216h16V64zm24-48h208c13.232 0 24 10.768 24 24v8H120v-8c0-13.232 10.768-24 24-24zm232 288h16v96h-16zM104 456c0 22.056 17.944 40 40 40h208c22.056 0 40-17.944 40-40v-40H104v40zm16-24h256v24c0 13.232-10.768 24-24 24H144c-13.232 0-24-10.768-24-24v-24z"/><path d="M208 448h80v16h-80zM472 80H296c-13.232 0-24 10.768-24 24v72h-8c-17.648 0-32 14.352-32 32v16c0 8.824-7.176 16-16 16s-16-7.176-16-16v-96c0-17.648-14.352-32-32-32s-32 14.352-32 32v144H64c-35.288 0-64 28.712-64 64s28.712 64 64 64c19.448 0 37.8-8.896 49.92-24h52.256c13.448 15.616 39.112 24 57.824 24 35.288 0 64-28.712 64-64s-28.712-64-64-64h-72V128c0-8.824 7.176-16 16-16s16 7.176 16 16v96c0 17.648 14.352 32 32 32s32-14.352 32-32v-16c0-8.824 7.176-16 16-16h8v72c0 13.232 10.768 24 24 24h176c13.232 0 24-10.768 24-24V104c0-13.232-10.768-24-24-24zM272 336c0 26.472-21.528 48-48 48-18.184 0-39.44-9.232-47.368-20.576L174.248 360h-68.496l-2.384 3.424C94.36 376.304 79.64 384 64 384c-26.472 0-48-21.528-48-48s21.528-48 48-48h160c26.472 0 48 21.528 48 48zm208-72c0 4.416-3.584 8-8 8H296c-4.416 0-8-3.584-8-8V104c0-4.416 3.584-8 8-8h176c4.416 0 8 3.584 8 8v160z"/><path d="M384 112c-35.288 0-64 28.712-64 64v80h19.312L352 243.312l16 16 16-16 16 16 16-16L428.688 256H448v-80c0-35.288-28.712-64-64-64zm48 124.688l-16-16-16 16-16-16-16 16-16-16-16 16V176c0-26.472 21.528-48 48-48s48 21.528 48 48v60.688z"/><path d="M352 160h16v16h-16zm48 0h16v16h-16zm-32 32h32v16h-32z"/></g></svg>