<svg xmlns="http://www.w3.org/2000/svg" viewBox="0 0 496 496"><g fill="#b3c1c9"><path d="M352 64H192c-8.84 0-16 7.16-16 16v32h192V80c0-8.84-7.16-16-16-16zM136 80H72c-4.416 0-8 3.584-8 8v24h80V88c0-4.416-3.584-8-8-8z"/><circle cx="288" cy="304" r="128"/></g><path d="M64 176c-13.232 0-24-10.768-24-24s10.768-24 24-24 24 10.768 24 24-10.768 24-24 24zm0-32c-4.408 0-8 3.592-8 8s3.592 8 8 8 8-3.592 8-8-3.592-8-8-8z" fill="#b3c1c9"/><g fill="#252525"><path d="M248 304c0 22.056 17.944 40 40 40s40-17.944 40-40-17.944-40-40-40-40 17.944-40 40zm64 0c0 13.232-10.768 24-24 24s-24-10.768-24-24 10.768-24 24-24 24 10.768 24 24z"/><path d="M288 168c-74.992 0-136 61.008-136 136s61.008 136 136 136 136-61.008 136-136-61.008-136-136-136zm0 256c-66.168 0-120-53.832-120-120s53.832-120 120-120 120 53.832 120 120-53.832 120-120 120z"/><path d="M440 104h-64V80c0-13.232-10.768-24-24-24H192c-13.232 0-24 10.768-24 24v24h-16V88c0-8.824-7.176-16-16-16H72c-8.824 0-16 7.176-16 16v16c-30.88 0-56 25.12-56 56v240c0 13.232 10.768 24 24 24h160v-16H24c-4.408 0-8-3.592-8-8V200h72v192h16V200h80v-16h-68.688l64-64h185.376l64 64H384v16h56v192h16V200h24v200c0 4.408-3.592 8-8 8h-80v16h80c13.232 0 24-10.768 24-24V160c0-30.88-25.12-56-56-56zM184 80c0-4.408 3.592-8 8-8h160c4.408 0 8 3.592 8 8v24H184V80zM72 88h64v16H72V88zm20.68 96H16v-24c0-22.056 17.944-40 40-40h100.68l-64 64zm358.64 0l-64-64H440c22.056 0 40 17.944 40 40v24h-28.68z"/><path d="M192 136h16v16h-16zm40 0h112v16H232zm56 96c16.56 0 32.744 5.776 45.552 16.256l10.136-12.384C328.024 223.056 308.248 216 288 216c-48.52 0-88 39.48-88 88 0 20.248 7.056 40.024 19.872 55.688l12.384-10.136C221.776 336.744 216 320.56 216 304c0-39.696 32.304-72 72-72zm68.128 16.312l-12.384 10.136C354.224 271.256 360 287.44 360 304c0 39.696-32.304 72-72 72-16.56 0-32.744-5.776-45.552-16.256l-10.136 12.384C247.976 384.944 267.752 392 288 392c48.52 0 88-39.48 88-88 0-20.248-7.056-40.024-19.872-55.688z"/></g></svg>