<svg xmlns="http://www.w3.org/2000/svg" viewBox="0 0 496 496"><g fill="#b3c1c9"><path d="M440 80H56V0h384v80zM72 64h352V16H72v48z"/><path d="M88 32h16v16H88zm32 0h16v16h-16zm32 0h16v16h-16z"/></g><path d="M272 264h128v64H272zm-176 0h128v64H96z" fill="#b3c1c9"/><g fill="#252525"><path d="M0 408c0 22.056 17.944 40 40 40h128v32h-32v16h224v-16h-32v-32h128c22.056 0 40-17.944 40-40v-24H0v24zm312 72H184v-32h128v32zM16 400h464v8c0 13.232-10.768 24-24 24H40c-13.232 0-24-10.768-24-24v-8zM456 80v16c13.232 0 24 10.768 24 24v248h16V120c0-22.056-17.944-40-40-40zM16 120c0-13.232 10.768-24 24-24V80C17.944 80 0 97.944 0 120v248h16V120zm424-24h-16v256H72V96H56v272h384z"/><path d="M264 336h144v-80H264v80zm16-64h112v48H280v-48zm-48-16H88v80h144v-80zm-16 64H104v-48h112v48zm-104-96h272c13.232 0 24-10.768 24-24v-80c0-13.232-10.768-24-24-24H112c-13.232 0-24 10.768-24 24v80c0 13.232 10.768 24 24 24zm-8-104c0-4.408 3.592-8 8-8h272c4.408 0 8 3.592 8 8v80c0 4.408-3.592 8-8 8H112c-4.408 0-8-3.592-8-8v-80z"/></g><path d="M240 128h16v16h-16zm-24 24h16v16h-16zm24 24h16v16h-16zm24-24h16v16h-16zm72-24h16v16h-16zm-24 24h16v16h-16zm24 24h16v16h-16zm24-24h16v16h-16zm-216-24h16v16h-16zm-24 24h16v16h-16zm24 24h16v16h-16zm24-24h16v16h-16z" fill="#b3c1c9"/></svg>