<svg xmlns="http://www.w3.org/2000/svg" viewBox="0 0 496 496"><path fill="#505cfd" d="M32 224h336v240H32z"/><g fill="#252525"><path d="M400 208H0v-80h400v80zM16 192h368v-48H16v48z"/><path d="M32 160h16v16H32z"/></g><path fill="#252525" d="M400 496H0V224h16v256h368V224h16z"/><g fill="#252525"><path d="M64 160h16v16H64zm32 0h16v16H96zm400-80H96V0h400v80zM112 64h368V16H112v48z"/><path d="M128 32h16v16h-16z"/></g><path d="M96 96h16v16H96zm400 272h-80v-16h64V96h16zM160 32h16v16h-16zm32 0h16v16h-16zm8 416c-13.232 0-24-10.768-24-24s10.768-24 24-24 24 10.768 24 24-10.768 24-24 24zm0-32c-4.416 0-8 3.592-8 8s3.584 8 8 8 8-3.592 8-8-3.584-8-8-8zm93.976 5.32l-11.952-10.64L341.296 344l-59.272-66.68 11.952-10.64L362.704 344zm-187.952 0L37.296 344l68.728-77.32 11.952 10.64L58.704 344l59.272 66.68zM208 392h-16v-26.072c0-10.872 7.488-20.424 18.192-23.24 20.616-5.416 33.304-26.232 28.896-47.384-3.144-15.04-15.352-27.256-30.4-30.392-12.176-2.544-24.512.392-33.904 8.032C165.392 280.584 160 291.904 160 304c0 11.304 4.856 22.144 13.344 29.744l-10.688 11.912C150.808 335.024 144 319.84 144 304c0-16.936 7.536-32.776 20.696-43.472 13.144-10.688 30.36-14.8 47.264-11.288 21.176 4.416 38.376 21.616 42.792 42.792 6.16 29.504-11.632 58.544-40.496 66.128-3.744.992-6.256 4.112-6.256 7.768V392z" fill="#252525"/></svg>