<svg xmlns="http://www.w3.org/2000/svg" viewBox="0 0 496 496"><path fill="#505cfd" d="M176 96h288v208H176z"/><g fill="#252525"><path d="M496 80H144V0h352v80zM160 64h320V16H160v48z"/><path d="M176 32h16v16h-16zm32 0h16v16h-16zm32 0h16v16h-16z"/></g><g fill="#252525"><path d="M0 408c0 22.056 17.944 40 40 40h64v32H72v16h224v-16h-32v-32h64c22.056 0 40-17.944 40-40v-24H0v24zm248 72H120v-32h128v32zM16 400h336v8c0 13.232-10.768 24-24 24H40c-13.232 0-24-10.768-24-24v-8zm336-48h16v16h-16zM16 208c0-13.232 10.768-24 24-24h88v-16H40c-22.056 0-40 17.944-40 40v160h16V208zM480 96v224H160V96h-16v240h352V96z"/><path d="M277.656 258.344L211.312 192l66.344-66.344-11.312-11.312L188.688 192l77.656 77.656zm96 11.312L451.312 192l-77.656-77.656-11.312 11.312L428.688 192l-66.344 66.344zm-22.007-155.342l-47.96 160.015-15.326-4.593 47.96-160.016z"/></g></svg>