<svg xmlns="http://www.w3.org/2000/svg" viewBox="0 0 496 496"><path fill="#505cfd" d="M112 192h112v112H112z"/><g fill="#252525"><path d="M416 80H80V0h336v80zM96 64h304V16H96v48z"/><path d="M112 32h16v16h-16zm32 0h16v16h-16zm32 0h16v16h-16z"/></g><path d="M120 104h64v64h-64zm96 0h64v64h-64zm96 0h64v64h-64z" fill="#505cfd"/><g fill="#252525"><path d="M0 408c0 22.056 17.944 40 40 40h120v32h-32v16h240v-16h-32v-32h120c22.056 0 40-17.944 40-40v-24H0v24zm320 72H176v-32h144v32zM16 400h464v8c0 13.232-10.768 24-24 24H40c-13.232 0-24-10.768-24-24v-8zM456 80h-24v16h24c13.232 0 24 10.768 24 24v248h16V120c0-22.056-17.944-40-40-40zM16 120c0-13.232 10.768-24 24-24h24V80H40C17.944 80 0 97.944 0 120v248h16V120zm400-24h-16v224H96V96H80v240h336z"/><path d="M224 224h-16v64h-96v16h112zm-96-16h96v-16H112v80h16zm112-16h16v16h-16zm32 0h112v16H272zm-32 32h144v16H240zm128 64h16v16h-16zm-128 0h112v16H240zm0-32h144v16H240zM192 96h-80v80h80V96zm-16 64h-48v-48h48v48zm112-64h-80v80h80V96zm-16 64h-48v-48h48v48zm112-64h-80v80h80V96zm-16 64h-48v-48h48v48z"/></g></svg>