<svg xmlns="http://www.w3.org/2000/svg" viewBox="0 0 496 496"><g fill="#252525"><path d="M248 96H0V16h248v16H16v48h232z"/><path d="M32 48h16v16H32zm32 0h16v16H64zm32 0h16v16H96z"/></g><path fill="#505cfd" d="M40 160h208v224H40z"/><path d="M496 96H272V80h208V32H272V16h224zm-224 56h16v16h-16zm176 0h16v16h-16zm0 64h16v16h-16zm-64 32h16v16h-16zm-32 0h16v16h-16zm-80 0h16v16h-16zm64 64h16v16h-16zm-64 64h16v16h-16zm176 0h16v16h-16z" fill="#252525"/><g fill="#252525"><path d="M480 112v352H272v16h224V112zm-240 40H32v240h208v72H16V112H0v368h240v16h16V0h-16v152zm-27.312 104L240 283.312V344H105.248l74.464-88h32.976zm6.624-16H200.72c3.384-20.056 19.224-35.888 39.28-39.28v59.968L219.312 240zM48 376V168h192v16.552c-28.896 3.624-51.816 26.552-55.448 55.448h-12.264l-88 104H64v16h176v16H48zm256-224h72v16h-72zm88 0h40v16h-40zm-120 32h32v16h-32zm48 0h40v16h-40zm56 0h40v16h-40z"/><path d="M432 184h32v16h-32zm-160 32h160v16H272zm144 32h48v16h-48zm-112 0h32v16h-32zm-32 32h64v16h-64zm80 0h32v16h-32zm48 0h32v16h-32zm48 0h16v16h-16zm-176 32h48v16h-48zm96 0h32v16h-32zm48 0h48v16h-48zm-144 32h96v16h-96zm112 0h32v16h-32zm48 0h32v16h-32zm-128 32h32v16h-32zm48 0h32v16h-32zm48 0h32v16h-32z"/></g></svg>