<svg xmlns="http://www.w3.org/2000/svg" viewBox="0 0 496 496"><g fill="#252525"><path d="M299.94 385.224L252.252 328h-8.496l-47.688 57.224-19.824-79.288 15.52-3.872 12.176 48.712L236.252 312h23.504l32.312 38.776 12.176-48.712 15.52 3.872z"/><path d="M240.004 344h16v144h-16zm32 48h16v16h-16zm0 56h16v16h-16z"/></g><path d="M120.004 208h32v-96h-32c-17.672 0-32 14.328-32 32v32c0 17.672 14.328 32 32 32zm256 0h-32v-96h32c17.672 0 32 14.328 32 32v32c0 17.672-14.328 32-32 32z" fill="#505cfd"/><g fill="#252525"><path d="M447.82 390.192c-5.376-32.232-27.976-58.68-58.976-69.016l-8.216-2.736c10.864-7.44 17.576-17.32 18.032-18.008l4.192-6.296-6.04-4.536a72.125 72.125 0 0 1-22.792-28.808l-14.672 6.408a88.323 88.323 0 0 0 21.472 29.912c-5.048 5.512-13.928 12.96-23.808 13.456l-37.008-12.336V288h-16v21.768l50.024 16.672-.016.2c.224.016.44.008.664.024l29.096 9.696c25.368 8.464 43.856 30.104 48.256 56.472L446.556 480h-57.752c1.784-5.768 3.2-13.528 3.2-24 0-27-17.592-44.904-18.344-45.656l-11.312 11.312c.136.144 13.656 13.888 13.656 34.344 0 13.272-2.64 20.624-4.312 24H124.348c-1.736-3.472-4.344-10.816-4.344-24 0-20.208 13.544-34.224 13.68-34.368l-5.68-5.632-5.656-5.656c-.752.752-18.344 18.656-18.344 45.656 0 10.472 1.416 18.232 3.192 24H49.452l14.52-87.176c4.4-26.368 22.888-48.008 48.256-56.472l29.24-9.744c.152-.008.304-.008.456-.016l-.008-.136 50.088-16.688V288h-16v10.232L139.02 310.56c-9.976-.296-18.808-7.896-23.848-13.432 18.184-16.568 28.832-40.344 28.832-65.128h-16c0 22.536-10.768 44.072-28.808 57.6l-6.048 4.536 4.192 6.296c.456.68 7.176 10.568 18.024 18.008l-8.208 2.736c-31 10.336-53.6 36.784-58.976 69.016L30.556 496h434.888L447.82 390.192z"/><path d="M120.004 216h27.648c4.112 13.864 11.616 26.576 22.128 37.088l31.192 31.192c7.552 7.552 17.6 11.72 28.288 11.72h37.488c10.688 0 20.736-4.168 28.288-11.72l20.28-20.28h12.688c22.056 0 40-17.944 40-40v-8h8c22.056 0 40-17.944 40-40v-32c0-22.056-17.944-40-40-40h-9.32C358.78 45.128 308.108 0 248.004 0s-110.776 45.128-118.68 104h-9.32c-22.056 0-40 17.944-40 40v32c0 22.056 17.944 40 40 40zm24-16h-16v-80h16v80zm139.72 72.968c-4.536 4.536-10.56 7.032-16.976 7.032H229.26c-6.416 0-12.448-2.496-16.976-7.032l-31.192-31.192c-13.592-13.6-21.088-31.68-21.088-50.912V184c0-26.472 21.528-48 48-48h14.032c13.312 0 26.496-4.392 37.152-12.376l11.312-8.488C282.156 128.328 298.94 136 316.844 136h19.16v54.864c0 19.232-7.496 37.312-21.088 50.912L308.692 248h-84.688v16h68.688l-8.968 8.968zM352.004 120h16v80h-16v-80zm0 104c0 12.168-9.128 22.136-20.872 23.688 7.944-9.36 13.792-20.104 17.224-31.688h3.648v8zm48-80v32c0 10.416-6.712 19.216-16 22.528V121.48c9.288 3.304 16 12.104 16 22.52zm-152-128c51.36 0 94.824 38.024 102.592 88h-14.592v16h-19.16a45.784 45.784 0 0 1-38.184-20.44l-4.688-7.04-24.392 18.304c-7.888 5.92-17.68 9.176-27.544 9.176h-14.032c-19.12 0-36.264 8.472-48 21.808V104h-14.592c7.768-49.976 51.232-88 102.592-88zm-152 128c0-10.416 6.712-19.216 16-22.528v77.048c-9.288-3.312-16-12.112-16-22.528V144z"/></g></svg>