<svg xmlns="http://www.w3.org/2000/svg" viewBox="0 0 370 738"><defs><style>.b{fill:#fff;opacity:.1}</style></defs><path d="M365.89 167.54V52.46c0-29.59-23-52.46-52.62-52.46H57.59C28 0 3.08 22.87 3.08 52.46v44.16H0v27.75h3.08v25.7H0v52.42h3.08v15.42H0v52.42h3.08v413C3.08 712.9 28 738 57.59 738h255.68c29.58 0 52.62-25.1 52.62-54.68V252.85H370v-85.31zM345 683.08c0 17.95-13.23 33.42-31.13 33.42H58.48C40.57 716.5 25 701 25 683.08V52.59c0-18 15.57-31.07 33.48-31.07H88c6.24 0 8.55-.72 8.92 7.21a15.37 15.37 0 0 0 4.12 10 22.24 22.24 0 0 0 9.56 5.94 28.4 28.4 0 0 0 8.22 1.55h135a28.3 28.3 0 0 0 8.18-1.75 22.41 22.41 0 0 0 9.56-5.75 14.79 14.79 0 0 0 4.12-9.79c.38-7.93 2.68-7.41 8.93-7.41h29.25c17.9 0 31.13 13.12 31.13 31.07z" fill="#252525"/><circle class="b" cx="223.96" cy="23.5" r="4.5" transform="rotate(-1.59 223.839 23.649)"/><path class="b" d="M165 22.61h40c1.7 0 3.09 1.06 3.09 2.57s-1.39 2.57-3.09 2.57h-40c-1.7 0-3.08-1.05-3.08-2.57s1.34-2.57 3.08-2.57z"/></svg>